<svg xmlns="http://www.w3.org/2000/svg" viewBox="0 0 1080 485.255"><defs><style>.a{fill:#962d38;}</style></defs><rect class="a" x="495.975" y="377.344" width="76.775" height="11.333"/><path class="a" d="M572.748,367.671V281.794a20.035,20.035,0,0,0-40.069,0v85.877ZM552.715,273.1h0a8.7,8.7,0,0,1,8.7,8.694v74.544h-17.4V281.794a8.7,8.7,0,0,1,8.7-8.694"/><polygon class="a" points="488.004 262.713 488.004 262.713 488.004 283.856 499.342 283.856 499.342 274.045 513.501 274.045 495.975 367.671 507.311 367.671 526.959 262.713 488.004 262.713"/><path class="a" d="M444.565,238.259v29.97A15.629,15.629,0,0,0,460.2,283.856h2.269A15.63,15.63,0,0,0,478.1,268.229v-5.515H466.767v5.515a4.3,4.3,0,0,1-4.3,4.294H460.2a4.3,4.3,0,0,1-4.3-4.294V249.591H605.576v18.638a4.3,4.3,0,0,1-4.3,4.294H599.01a4.3,4.3,0,0,1-4.3-4.294v-5.515H583.379v5.515a15.627,15.627,0,0,0,15.631,15.627h2.271a15.631,15.631,0,0,0,15.635-15.627v-29.97Z"/><path class="a" d="M238.744,346.971a58.693,58.693,0,0,1-5.28,4.02c-1.08-1.26-3.66-4.08-5.1-5.4a46.917,46.917,0,0,0,16.32-15.659l6.719,2.4a59.3,59.3,0,0,1-5.579,7.5V360.71h-7.08Zm45,27.119H260.283v12h-7.62v-12H229.384v-6.84h23.279v-6.66h7.62v6.66h23.459ZM257.7,348.711c-2.58.78-5.1,1.5-7.62,2.1a23.528,23.528,0,0,0-2.52-5.64,103.371,103.371,0,0,0,10.14-3.06v-11.1h7.14v8.34a66.39,66.39,0,0,0,12.239-6.42l5.1,5.579a82.482,82.482,0,0,1-17.339,7.92v4.32c0,2.22.42,2.52,2.82,2.52h6.96c2.039,0,2.459-1.02,2.759-6.06a21.493,21.493,0,0,0,6.24,2.64c-.72,7.319-2.7,9.48-8.34,9.48h-8.639c-7.14,0-8.94-1.98-8.94-8.52Z"/><path class="a" d="M307.563,367.13a53.187,53.187,0,0,1-11.519,17.1,42.585,42.585,0,0,0-6-4.559,37.791,37.791,0,0,0,10.44-14.52Zm15.48-5.58v15.9c0,3.659-.72,5.579-3.18,6.779-2.34,1.2-5.76,1.38-10.08,1.38a29.231,29.231,0,0,0-2.7-7.319c3.12.12,6.36.18,7.38.12,1.02,0,1.32-.24,1.32-1.14V361.55h-12.3c-3.239,0-6.419.36-7.019.96a54.112,54.112,0,0,0-2.58-7.26c1.74-.479,3-1.919,4.98-4.379a66.289,66.289,0,0,0,4.32-6.36h-12.36v-6.84h16.139c1.38-2.64,2.7-5.4,3.84-8.219l7.92,2.819c-.9,1.86-1.8,3.6-2.76,5.4h26.279v6.84H312c-2.339,3.66-4.739,7.08-7.02,10.14h10.8v-7.62h7.26v7.62h16.379l-.06,6.9Zm9.18,3.6c4.2,4.44,9.359,10.56,11.7,14.76l-6.48,3.36c-2.16-4.081-7.08-10.56-11.279-15.24Z"/><path class="a" d="M357.3,366.11h-6.36V336.951h6.36Zm3.54-35.879h6.539v23.76c0,11.939-1.139,23.7-10.439,31.918a27.122,27.122,0,0,0-5.4-4.68c8.34-7.139,9.3-16.979,9.3-27.3Zm28.739,9.061v5.339h12.6V370.55c0,2.82-.48,4.5-2.28,5.58-1.68,1.02-3.96,1.14-7.08,1.14a21.823,21.823,0,0,0-1.86-6.12c1.621.06,3.3.06,3.84.06.6,0,.781-.18.781-.84V351.051h-6v34.918h-6.66V351.051h-5.46V377.39h-6.42V344.631h11.88v-5.339h-13.5v-6.48h34.2v6.48Z"/><path class="a" d="M441.963,353.511c3.96,11.7,11.22,21.119,22.439,25.678a28.735,28.735,0,0,0-5.28,6.72c-10.859-5.1-17.819-13.859-22.5-25.438-3.24,10.019-9.72,19.379-22.439,25.5a21.136,21.136,0,0,0-5.34-6.059c13.739-6.12,19.439-16.08,21.78-26.4h-20.64v-7.38h21.839c.6-5.64.54-11.1.6-16.019h7.8c-.06,4.919-.12,10.439-.72,16.019h23.579v7.38Z"/><path class="a" d="M667.554,383.56c0,3.719-.781,5.459-3.12,6.659-2.281,1.08-5.76,1.2-10.92,1.2a22.768,22.768,0,0,0-2.16-6.66c3.06.18,6.6.12,7.62.12s1.44-.359,1.44-1.379V344.921H628.375v14.16c0,9.839-.96,23.939-7.5,32.638a27.587,27.587,0,0,0-5.76-4.5c5.7-7.86,6.18-19.379,6.18-28.138v-20.76h46.259Zm-27.06-24.539v-3.84h-8.939v-5.4h8.939v-3.96h6.78v3.96h9.42v5.4h-9.42v3.84h10.62V364.6H630.355v-5.579Zm-1.5,25.258v3.24h-6.479v-19.5h23.1v16.259Zm0-10.859v5.519h10.021V373.42Z"/><path class="a" d="M731.033,378.7H710.514v12.839h-7.379V378.7h-27v-6.84h9.479V356.081h17.52v-7.14H690.3a53.92,53.92,0,0,1-8.159,10.919,55.228,55.228,0,0,0-6.181-4.619c5.4-4.56,10.021-12.24,12.6-19.98l7.259,1.86a38.3,38.3,0,0,1-1.979,4.92h33.9v6.9H710.514v7.14h15.84v6.659h-15.84v9.12h20.519Zm-27.9-6.84v-9.12h-10.38v9.12Z"/><path class="a" d="M753.715,372.94c-.72-2.04-2.04-5.04-3.36-7.92v26.459h-6.54V367.24c-1.62,5.58-3.54,10.739-5.7,14.219a44.519,44.519,0,0,0-3.3-7.079c3.361-4.74,6.241-13.26,7.8-20.52h-5.939v-6.6h7.139v-11.82h6.54v11.82h5.94v6.6h-5.94v1.92c1.56,2.04,6.36,10.02,7.44,11.76Zm32.4-6.84a21.931,21.931,0,0,0-1.5-2.4,44.824,44.824,0,0,1-6.539,13.259,36.775,36.775,0,0,0,14.28,7.68,27.8,27.8,0,0,0-4.741,6.42,38.3,38.3,0,0,1-14.279-8.64,45.452,45.452,0,0,1-14.4,9.12,25.17,25.17,0,0,0-4.5-5.58,41.517,41.517,0,0,0,14.339-8.879,56.166,56.166,0,0,1-6.6-12.66c-.78.78-1.62,1.44-2.4,2.1a32.176,32.176,0,0,0-4.92-4.44,44.348,44.348,0,0,0,10.02-11.7l6.3,2.88a69.279,69.279,0,0,1-6.84,8.939l3.48-.9a40.179,40.179,0,0,0,5.4,10.32,33.459,33.459,0,0,0,4.74-10.38l6.06,1.62a67.3,67.3,0,0,0-7.98-9.119l4.079-3.42H757.8v-6.54h13.5a33.785,33.785,0,0,0-3.779-6.66l6.3-2.34a31.233,31.233,0,0,1,4.56,7.38l-3.78,1.62h16.319v6.54h-9.419c3.659,3.42,7.919,7.979,9.839,11.279Z"/><path class="a" d="M807,357.7c0,9.6-.84,24.239-5.939,33.6a28.407,28.407,0,0,0-6.241-4.02c4.68-8.519,5.04-20.939,5.04-29.579V342.4h22.919a35.889,35.889,0,0,0-3.059-4.92l6.42-2.52a29.878,29.878,0,0,1,4.619,7.44h20.279v6.84H807Zm25.319,8.1a41.016,41.016,0,0,0,19.679,19.439,27.154,27.154,0,0,0-5.04,6.12c-7.559-3.96-13.679-10.38-18.3-18.179-2.939,7.259-8.1,13.739-17.579,18.359a18.148,18.148,0,0,0-4.62-5.519c10.619-4.8,15.06-12.24,16.98-20.22h-14.46v-6.659h15.66c.3-2.88.479-5.641.659-8.34h7.62c-.18,2.76-.42,5.519-.78,8.34h17.88V365.8Z"/><path class="a" d="M364.979,450.486c-3.541,10.5-11.4,18.179-28.439,22.559a22.632,22.632,0,0,0-4.08-6c14.159-3.359,21.179-8.879,24.719-16.559H333.12v-6.66h26.159c1.56-7.26,1.38-16.019,1.44-26.459h7.439c-.059,9.96-.059,18.779-1.5,26.459h20.459v6.66Zm-16.32-7.38c-2.88-2.46-9-5.879-13.919-7.859l4.2-4.98c4.8,1.74,11.1,4.74,14.22,7.319Zm5.4-11.759c-2.82-2.4-9-5.64-13.859-7.44l3.9-5.04c4.739,1.56,10.979,4.38,14.039,6.78Zm12.06,23.459c8.1,3.36,16.739,8.279,21.419,12.059l-4.68,5.52c-4.56-3.96-12.66-9-20.46-12.479Z"/><path class="a" d="M445.918,449.466c-1.8,1.08-3.78,2.1-5.64,3.06,1.62,4.98,4.56,9.539,8.46,11.879a29.572,29.572,0,0,0-4.44,5.34c-4.32-3.18-7.38-8.64-9.18-14.879-.72.3-1.38.6-2.04.84,1.62,6.18.72,12.3-1.62,14.819a7.072,7.072,0,0,1-5.879,2.64,24.3,24.3,0,0,1-3.6-.06,13.908,13.908,0,0,0-1.62-6.06,32.156,32.156,0,0,0,3.72.24,2.336,2.336,0,0,0,2.46-1.26c.659-.779,1.08-2.46,1.08-4.619a60.98,60.98,0,0,1-16.68,9.239,35.2,35.2,0,0,0-4.08-4.979c7.08-1.92,15.24-6,19.8-10.14a20.538,20.538,0,0,0-.781-2.04,57.4,57.4,0,0,1-14.459,8.1,23.6,23.6,0,0,0-3.72-4.379c5.4-1.5,12.12-4.62,15.78-7.56a15.44,15.44,0,0,0-1.26-1.44,39.832,39.832,0,0,1-11.4,5.1,39.1,39.1,0,0,0-3.78-4.2,40.236,40.236,0,0,0,11.88-5.4h-7.44v-8.459c-.54.48-1.14.9-1.68,1.379a18.32,18.32,0,0,0-4.5-4.619l-.06.18v40.858H398.4v-30a50.086,50.086,0,0,1-3.419,4.14,48.17,48.17,0,0,0-3.84-7.379c5.16-5.46,10.139-13.98,12.96-22.44l6.719,2.1a94.873,94.873,0,0,1-5.46,12.48,42.263,42.263,0,0,0,12.96-14.759l6.72,1.259c-.54.96-1.081,1.98-1.681,2.94h9.18l1.32-.36,4.02,3a61.831,61.831,0,0,1-4.26,5.76h10.86v13.919h-17.22c-.3.36-.6.72-.96,1.08a19.986,19.986,0,0,1,4.98,6.36,96.7,96.7,0,0,0,9.96-6.06Zm-26.159-22.859c-.84,1.08-1.74,2.16-2.64,3.18h9.06a34.377,34.377,0,0,0,2.46-3.18Zm-2.04,12h6.12a11.471,11.471,0,0,0,1.619-3.719h-7.739Zm20.219-3.719h-6.72a19.582,19.582,0,0,1-.9,3.719h7.62Z"/><path class="a" d="M508.078,463.985v6.48H473.219V445.026l-3.24,5.46a58.249,58.249,0,0,0-3.6-6.12v28.679H459.84V449.166a46.194,46.194,0,0,1-5.52,10.919,47.2,47.2,0,0,0-3.18-7.139c3.48-3.84,6.66-11.1,8.4-17.579h-7.26v-6.6h7.56v-11.76h6.539v11.76h5.52v6.6h-5.52v.84c1.68,1.68,5.34,5.879,6.84,7.679V420.547h33.9v6.48H480v36.958Zm-17.88-9.6v-6.48h-7.439v-5.82H490.2v-5.819h-8.219v-6h23.639v6H496.8v5.819h7.8v5.82h-7.8v6.48h9.18v6H481.5v-6Z"/><path class="a" d="M567.3,463.025v7.2H512.76v-7.2h21.479V417.847h7.68v17.16H563.1v7.26H541.919v20.758Z"/><path class="a" d="M593.759,447.366a33.729,33.729,0,0,0-.18,5.94c-14.64,2.82-17.039,3.54-18.6,4.44a56.961,56.961,0,0,0-2.219-6.24c1.559-.36,2.94-1.68,4.8-3.84a66.349,66.349,0,0,0,4.74-5.939c-5.34.6-6.78.96-7.74,1.44-.36-1.321-1.5-4.681-2.28-6.541,1.26-.359,2.28-1.619,3.6-3.539a66.007,66.007,0,0,0,7.559-15.839l6.661,3.239a87.8,87.8,0,0,1-8.88,15.48l5.04-.42a64.236,64.236,0,0,0,3.479-6.3l5.76,3.66a104.6,104.6,0,0,1-11.159,16.019Zm.72,16.02c-6.9,2.4-14.219,5.039-20.04,6.959L573,463.625c5.04-1.319,12.839-3.779,20.339-6.059Zm33.119-13.8a47.832,47.832,0,0,1-10.56,11.7c1.32,3.06,2.76,4.92,4.26,4.92,1.14,0,1.68-1.56,1.98-6.36a16.464,16.464,0,0,0,4.98,3.96c-1.14,7.379-3,9.3-7.74,9.3-3.9,0-6.839-2.94-9.24-7.74a72.852,72.852,0,0,1-14.459,6.9,23.825,23.825,0,0,0-4.32-5.88,66,66,0,0,0,16.379-7.26,110.905,110.905,0,0,1-2.4-10.919l-10.68,1.92-1.14-6.3,10.98-2.04c-.241-1.86-.42-3.78-.6-5.7l-7.979,1.261-1.2-6.42,8.759-1.32c-.239-4.2-.359-8.46-.359-12.66h7.079c-.06,3.9,0,7.8.181,11.58l12.838-1.92,1.2,6.18-13.62,2.16q.27,2.88.541,5.579l13.5-2.4,1.14,6.18-13.74,2.58c.48,2.76.96,5.4,1.5,7.74a32.654,32.654,0,0,0,6.72-7.74Zm-7.8-22.5a74.941,74.941,0,0,0-7.44-5.64l4.14-3.719a61.237,61.237,0,0,1,7.56,5.159Z"/><path class="a" d="M648.239,457.506H639.18v5.34h-5.46v-40.5h14.519Zm-9.059-28.619v22.079h3.6V428.887Zm25.858,19.379c-1.619.6-3.239,1.26-4.859,1.92v15.779c0,3-.54,4.74-2.281,5.82-1.559,1.08-3.9,1.38-7.258,1.32a23.1,23.1,0,0,0-1.861-6.24c1.92.06,3.72.06,4.38.06.6-.06.84-.239.84-.96V452.706l-3.3,1.26-1.92-6.54c1.5-.42,3.241-1.02,5.22-1.62v-10.68h-4.14v-6.179H654V417.308h6.18v11.639h3.9v6.179h-3.9v8.58l3.78-1.2Zm23.039,16.739v6.18H663.118v-6.18h12.6a258.638,258.638,0,0,0,3.96-30l6.66,1.079c-1.2,9.48-3.06,20.82-4.86,28.919Zm-.84-31.618H665.219v-6.18h8.639a52.963,52.963,0,0,0-2.46-9.24l6-1.619a49.419,49.419,0,0,1,2.76,9.239l-5.46,1.62h12.539Zm-18.9,29.939a180.1,180.1,0,0,0-2.16-26.7l5.519-1.02a167.517,167.517,0,0,1,2.7,26.28Z"/><path class="a" d="M699.72,463.206A5.28,5.28,0,1,1,705,468.485,5.12,5.12,0,0,1,699.72,463.206Zm.6-31.2-.3-8.94h9.959l-.3,8.94-1.619,20.519h-6.121Z"/></svg>