<svg xmlns="http://www.w3.org/2000/svg" viewBox="0 0 1080 485.255"><defs><style>.a{fill:#962d38;}</style></defs><rect class="a" x="505.235" y="377.344" width="76.775" height="11.333"/><path class="a" d="M582.008,367.671V281.794a20.035,20.035,0,0,0-40.07,0v85.877ZM561.974,273.1h0a8.7,8.7,0,0,1,8.7,8.694v74.544h-17.4V281.794a8.7,8.7,0,0,1,8.7-8.694"/><polygon class="a" points="497.263 262.713 497.263 262.713 497.263 283.856 508.601 283.856 508.601 274.045 522.761 274.045 505.235 367.671 516.571 367.671 536.219 262.713 497.263 262.713"/><path class="a" d="M453.824,238.259v29.97a15.63,15.63,0,0,0,15.634,15.627h2.269a15.63,15.63,0,0,0,15.637-15.627v-5.515H476.027v5.515a4.3,4.3,0,0,1-4.3,4.294h-2.269a4.3,4.3,0,0,1-4.3-4.294V249.591H614.836v18.638a4.3,4.3,0,0,1-4.295,4.294h-2.272a4.3,4.3,0,0,1-4.3-4.294v-5.515H592.638v5.515a15.628,15.628,0,0,0,15.631,15.627h2.272a15.631,15.631,0,0,0,15.635-15.627v-29.97Z"/><path class="a" d="M257.225,364.43l.359-2.281h11.4l-.359,2.281H288.6l-.78,5.7h-19.98l-1.619,11.281h-11.4l1.62-11.281H237.665l.779-5.7Zm.359-22.8h.061l-2.581,18.241h-11.4l1.859-13.32-3.54.78.84-5.7,15.3-3.42Zm31.141,5.7-11.641,1.74-.72,5.1h10.261l2.64-2.279-1.14,7.98h-23.94l1.259-9-6.96,1.02.781-5.7,6.96-1.02.659-4.679-1.92-2.281h13.681l-.781,5.161,11.7-1.741Z"/><path class="a" d="M302.464,378.709h-10.2l7.86-14.879h10.2Zm-3.48-23.4,5.34-7.98h-6.54l.84-5.7h9.54l1.32-1.92-1.26-1.5H321.9l-2.34,3.42h25.8l-.84,5.7h-28.8l-5.34,7.98h4.5l.66-4.56h11.4l-.66,4.56h14.88l-.84,5.7H325.5l-2.28,16.44a4.725,4.725,0,0,1-4.68,3.96h-11.88l5.4-5.58,2.04-14.82h-15.96Zm43.44,23.4h-10.2l-3.66-14.879h10.2Z"/><path class="a" d="M351.484,341.57h7.86l-4.14,29.579h-7.86Zm14.7,24.119-6.241,15.661h-8.52l6.78-15.661,3.54-25.079-1.26-2.34h9.6Zm34.5-26.339-.781,5.58H389.7l-.6,4.2h10.14l-3.36,23.761a4.645,4.645,0,0,1-1.59,2.88,4.443,4.443,0,0,1-3.03,1.2h-5.82l2.4-3.18,2.7-18.9h-2.28l-3.72,26.46h-9.3l3.72-26.46H376.8l-3.119,22.08h-7.921l3.9-27.841H379.8l.6-4.2H370.145l.779-5.58Z"/><path class="a" d="M442.984,339.35l-8.22,12.54h20.76l-.78,5.7h-10.68l9,23.82h-12.54l-8.94-23.82h-.54l-15.6,23.82H402.9l15.6-23.82H408l.78-5.7h13.44l7.26-11.04-1.32-1.5Z"/><path class="a" d="M678.175,344.739l-5.34,38.1a4.379,4.379,0,0,1-1.56,2.85,4.613,4.613,0,0,1-3.06,1.11h-10.68l5.28-5.52,4.321-30.84H640.615l-7.08,36.36h-10.26l7.741-39.9-1.861-2.16Zm-15.9,23.94-1.86,13.14h-22.8l1.861-13.14Zm-15.54-6.84.361-2.28h-6.3l.6-4.559h6.3l.361-2.281h10.259l-.36,2.281h6.24l-.6,4.559h-6.241l-.36,2.28h6.24l-.6,4.56h-22.8l.6-4.56Zm6.361,15.42.6-4.02h-6.84l-.6,4.02Z"/><path class="a" d="M686.516,368.679l1.139-7.98h-5.7l7.261-15.36-1.441-1.74h13.68l-1.08,2.28h31.5l-.779,5.7H717.415l-.779,5.7h12.54l-.84,5.7H715.8l-.78,5.7h15.96l-.781,5.7H714.176l-1.74,12.42h-11.4l1.74-12.42h-22.74l.78-5.7Zm8.46-11.4h10.259l.781-5.7h-8.34Zm2.879,11.4h5.76l.781-5.7h-5.7Z"/><path class="a" d="M733.614,384.639l4.74-26.04h4.021l-4.74,26.04Zm9.781-27.96h-5.34l.78-5.7h5.4l.781-5.52-1.5-1.74h10.679l-1.019,7.26h5.1l-.779,5.7h-5.16l-4.2,30.12h-8.941Zm7.14,24.54,2.159-22.62h4.021l-2.1,22.62ZM762.475,355h8.28l-4.26,6.779h1.619l2.7,4.5,4.141-4.56h2.7l-1.8-6.719H783.9l2.4,9h-3.54l-7.86,8.939,8.459,13.8h-10.08l-4.379-7.02-6.18,7.02H752.274l12.481-13.8-5.4-8.88h-2.4Zm7.139-6.961.3-2.1-1.74-2.28h12.059l-.66,4.38h9.061l-.781,5.7H759.535l.779-5.7Z"/><path class="a" d="M816.235,347.019l.18-1.14-1.92-2.28h13.68l-.48,3.42h15.96l-.841,5.7H806.035l-6.78,34.08H789l7.5-37.62-1.86-2.16Zm-4.26,20.4H805.8l.84-6.18h8.82l3.6-6.42H829.5l-3.48,6.42h14.46l-.84,6.18h-9.6l9.06,19.32H827.814l-6.839-16.08-8.58,16.02h-11.28Z"/><path class="a" d="M390.481,445.805l2.58-18.24-1.92-2.28h13.68l-2.94,20.52H417.9l-.84,5.7H396.3l-15.84,16.98h-13.68l15.84-16.98h-13.44l.84-5.7Zm-6.06-9.119,4.02,7.439h-12l-4.02-7.439Zm1.86-9.121,4.02,7.44h-12l-4.02-7.44Zm28.38,40.92h-12.54l-5.82-15.3h12.54Z"/><path class="a" d="M436.92,432.485l-5.04,35.88h-9.9l4.681-33.54-2.461.54,1.02-7.08,12.66-2.88Zm2.94,1.681h17.7l1.919-2.581h-8.16l-.9,1.2H439.86l4.92-6-1.02-1.44h12.421l-1.5,1.92H470.76l-.54,3.96-2.52,2.941h5.4l-1.621,11.339H457.621l2.279,4.08,10.32-2.88-.659,5.04-2.52.66,2.939,13.86h-7.319l-2.281-11.46L459,464.646a4.037,4.037,0,0,1-1.53,2.7,4.741,4.741,0,0,1-3.03,1.02H445.2l4.68-4.14.42-2.94-8.34,5.52h-9.18l18.241-11.46.12.06.119-1.2-8.4,5.04h-9.179l15.9-9.059-.241-.9-4.86,2.58h-8.7l11.341-6.36H438.24Zm6.661,7.259h5.819l.42-3.239h-5.82Zm18.3-3.239h-5.88l-.48,3.239h5.94Z"/><path class="a" d="M475.44,466.325l4.741-26.76h3.66l-4.68,26.76Zm9.48-29.04h-5.339l.78-5.7h5.34l.66-4.439-1.32-1.741h9.54l-.9,6.18h4.56l-.781,5.7H492.9l-4.44,31.2h-7.919Zm6.121,25.62,2.28-23.34h3.72l-2.28,23.34Zm16.859-30.84-4.2,29.82h22.2l-.779,5.761H494.46l5.761-41.161H529.98l-.779,5.58Zm5.641,11.7.6-4.32h-5.88l.78-5.58H528l-.779,5.58h-4.86l-.6,4.32h4.8l-.84,5.7H520.98l-.719,5.04h5.34l-.78,5.7H505.44l.781-5.7h5.82l.72-5.04h-5.7l.839-5.7Z"/><path class="a" d="M549.48,461.765l4.8-34.26-1.979-2.22H565.98l-2.219,15.96h19.38l-.781,5.7H562.921l-2.04,14.82H581.4l-.779,5.7H532.74l.781-5.7Z"/><path class="a" d="M603.841,466.325l-17.22,1.14.78-5.7,17.28-1.14Zm-13.26-27.36,7.8-12.18-1.32-1.5H609.6l-8.76,13.68h6.84l-8.76,13.681h6.84l-.78,5.7h-17.1l.78-5.7,5.16-7.98H589.8Zm45.48,17.1-8.22,2.22.36,3.48H633l2.58-2.28-1.08,7.98h-15.96l-.66-6.48-11.4,3.06.78-5.7,10.08-2.7-.84-8.161h-7.74l.84-5.7h6.3l-.3-2.82h-5.64l.84-5.7H615l-.84-7.98h10.26l.84,7.98H639.3l-.84,5.7h-12.6l.3,2.82H638.1l-.84,5.7H626.7l.6,5.46,9.6-2.58Zm2.04-30.78,1.5,5.7h-10.26l-1.5-5.7Z"/><path class="a" d="M661.38,427.565l-5.58,39.66H641.76l5.4-38.22-1.26-1.44Zm-10.8,34.56,4.141-29.459h-2.16l-4.141,29.459Zm10.32,1.62,1.44-10.26-3.3.78.84-6.3,3.3-.779,1.319-9.361h-3.24l.841-5.7h3.239l.721-5.1-1.5-1.74h10.08l-.96,6.84H675.9l-.839,5.7H672.84l-1.02,7.38,2.34-.539-.9,6.3-2.34.54-1.8,13.02a4.461,4.461,0,0,1-1.649,2.82,4.732,4.732,0,0,1-3.031,1.08h-7.8Zm27.96-2.1h2.22l-.78,5.7H670.92l.78-5.7h2.76l2.04-23.46h6.6l-2.04,23.46h1.319l4.62-23.46h6.48Zm-6.66-30.721.481-3.18-1.62-2.34h10.08l-.781,5.52h4.56l-.779,5.7H676.32l.781-5.7Z"/><path class="a" d="M714.36,464.345h-9.12l.781-5.7h9.12Zm1.08-8.4h-9.12l3.72-25.56h9.12Z"/></svg>