<?xml version="1.0" encoding="utf-8"?>
<svg version="1.1" xmlns="http://www.w3.org/2000/svg" xmlns:xlink="http://www.w3.org/1999/xlink" x="0px" y="0px"
	 viewBox="0 0 500 500" style="background-color: white;" xml:space="preserve">
<style type="text/css">
	.st0{fill:#595757;}
</style>
<g>
	<path class="st0" d="M53.3,270.3c2.4-2.2,4.9-6.2,6.2-9.8l5.8,1.4c-1.5,4-3.9,8.4-6.5,11L53.3,270.3z M94.2,258.4H59.5v-17.4h14
		v-14.7h6.1v4.4h17.9v5.6H79.6v4.8h14.6V258.4z M88.1,246.6h-23v6.4h23V246.6z M73.4,261.7c0.8,3.4,1.3,7.7,1.4,10.3l-6.1,0.8
		c0-2.6-0.4-7-1-10.5L73.4,261.7z M83.4,261.1c1.6,3.2,3.2,7.3,3.8,9.9l-5.8,1.5c-0.5-2.6-2-6.9-3.5-10.2L83.4,261.1z M93.5,260.1
		c2.4,3.2,5.3,7.5,6.6,10.5l-5.8,2.2c-1-2.8-3.8-7.4-6.2-10.8L93.5,260.1z"/>
	<path class="st0" d="M130.2,265.1h8.7v-11.2h6.2v19.4h-6.2v-2.3h-30.4v-16.9h6.4v11.2h9v-14.1h-19.5v-6h19.5v-5.8H108v-5.9h15.9
		v-6.9h6.4v6.9h15.7v5.9h-15.7v5.8h19v6h-19V265.1z"/>
	<path class="st0" d="M165.4,262.3c1.4,0.2,2.6,1.5,4.8,2.8c3.1,1.9,7.4,2.1,12.6,2.1c5,0,12.7-0.4,17.5-1.1
		c-0.6,1.6-1.6,4.6-1.6,6.2c-3.7,0.2-11.2,0.5-16,0.5c-6,0-9.9-0.6-13.3-2.5c-2-1.2-3.6-2.7-4.7-2.7c-1.9,0-4.6,2.9-7.3,6.1l-4-5.2
		c2-1.8,4.2-3.4,6.2-4.5v-12.8h-5.5v-5.5h11.2V262.3z M161.6,239.4c-1.4-2.4-4.7-5.9-7.5-8.3l4.5-3.4c2.9,2.3,6.3,5.6,7.9,7.9
		L161.6,239.4z M181.9,248.6c-1,7.1-3.4,12.7-11.7,16.2c-0.7-1.5-2.2-3.8-3.6-5c6.7-2.4,8.5-6.3,9.2-11.2h-8.2v-5.2h13.6v-5.8H175
		c-1,1.9-2.1,3.5-3.2,4.9c-1.1-1-3.6-2.5-4.9-3.2c2.7-2.8,4.9-7.1,6-11.5l5.6,1.2c-0.4,1.2-0.8,2.4-1.2,3.5h4v-6h5.9v6h10.4v5h-10.4
		v5.8h12.4v5.2h-8.7v8.8c0,1.4,0.1,1.5,1,1.5h2.1c0.8,0,1-0.6,1.1-5.2c1.1,1,3.6,2,5.2,2.3c-0.6,6.7-2.1,8.4-5.7,8.4h-3.8
		c-4.8,0-5.8-1.8-5.8-7v-8.8H181.9z"/>
	<path class="st0" d="M215.3,254.2v12.6c0,2.8-0.5,4.3-2.1,5.2s-3.8,1.1-7.1,1.1c-0.2-1.5-0.9-4-1.7-5.6c1.8,0.1,3.6,0.1,4.2,0
		c0.6,0,0.9-0.2,0.9-0.8v-10.9c-1.8,0.5-3.5,0.9-5.1,1.4l-1.3-5.7c1.8-0.4,4-1,6.4-1.5v-8.8h-5.7v-5.5h5.7v-9.4h5.8v9.4h5.3v5.5
		h-5.3v7.2l4.5-1.2l0.8,5.4L215.3,254.2z M247.8,230.1c-2,4.3-4.9,8-8.5,11.1c3.4,1.9,7.3,3.4,11.6,4.4c-1.2,1.1-2.9,3.5-3.6,4.9
		c-4.8-1.2-9-3.3-12.7-5.9c-3.9,2.5-8.2,4.4-12.6,5.8c-0.6-1.4-2-3.6-3.1-4.7c4-1,8-2.6,11.5-4.6c-2.2-2.2-4.1-4.7-5.7-7.4h-3v-5.3
		h21.5l0.9-0.2L247.8,230.1z M237.7,260.6h12.1v5.2h-12.1v7.3h-6v-7.3h-11.8v-5.2h11.8v-3.5h-9.3v-5.2h9.3v-3.9h6v3.9h8.9v5.2h-8.9
		V260.6z M230.5,233.6c1.2,1.6,2.7,3.1,4.4,4.5c1.8-1.4,3.4-2.9,4.7-4.5H230.5z"/>
	<path class="st0" d="M280.9,254.2c-3,8.8-9.5,15.2-23.7,18.8c-0.6-1.5-2.2-3.7-3.4-5c11.8-2.8,17.7-7.4,20.6-13.8h-20.1v-5.5h21.8
		c1.3-6.1,1.2-13.4,1.2-22.1h6.2c0,8.3,0,15.7-1.2,22.1h17.1v5.5H280.9z M267.3,248.1c-2.4-2.1-7.5-4.9-11.6-6.6l3.5-4.2
		c4,1.5,9.3,4,11.9,6.1L267.3,248.1z M271.8,238.2c-2.3-2-7.5-4.7-11.5-6.2l3.2-4.2c4,1.3,9.2,3.6,11.7,5.7L271.8,238.2z
		 M281.9,257.8c6.8,2.8,14,6.9,17.9,10.1l-3.9,4.6c-3.8-3.3-10.6-7.5-17.1-10.4L281.9,257.8z"/>
	<path class="st0" d="M348.4,253.4c-1.5,0.9-3.1,1.8-4.7,2.5c1.4,4.2,3.8,8,7.1,9.9c-1.2,1.1-2.9,3.1-3.7,4.5
		c-3.6-2.6-6.2-7.2-7.7-12.4c-0.6,0.2-1.2,0.5-1.7,0.7c1.3,5.2,0.6,10.2-1.4,12.4c-1.3,1.7-2.9,2.2-4.9,2.2c-0.9,0-2,0-3,0
		c0-1.4-0.5-3.6-1.3-5.1c1.3,0.2,2.3,0.2,3.1,0.2c1,0,1.6-0.2,2.1-1c0.5-0.7,0.9-2.1,0.9-3.9c-4.1,3.2-9.2,6.1-13.9,7.7
		c-0.8-1.2-2.3-3.1-3.4-4.1c5.9-1.6,12.7-5,16.5-8.5c-0.2-0.6-0.4-1.1-0.7-1.7c-3.4,2.7-8.2,5.3-12,6.8c-0.7-1.1-2.1-2.8-3.1-3.7
		c4.5-1.2,10.1-3.9,13.2-6.3c-0.3-0.5-0.7-0.8-1-1.2c-2.3,1.6-5.5,3.1-9.5,4.3c-0.7-0.9-2.1-2.6-3.1-3.5c4.4-1.3,7.5-2.8,9.9-4.5
		h-6.2v-7.1c-0.5,0.4-1,0.8-1.4,1.1c-0.8-1.2-2.5-3.1-3.8-3.9l0,0.1V273h-5.7v-25c-0.9,1.3-1.9,2.5-2.8,3.5
		c-0.5-1.4-2.2-4.7-3.2-6.2c4.3-4.6,8.5-11.7,10.8-18.7l5.6,1.8c-1.2,3.5-2.8,7-4.5,10.4c5.1-3.6,8.8-8.3,10.8-12.3l5.6,1.1
		c-0.5,0.8-0.9,1.6-1.4,2.5h7.7l1.1-0.3l3.4,2.5c-1,1.6-2.2,3.2-3.5,4.8h9v11.6h-14.4c-0.2,0.3-0.5,0.6-0.8,0.9
		c1.8,1.6,3.2,3.3,4.2,5.3c2.9-1.5,6.2-3.5,8.3-5L348.4,253.4z M326.6,234.3c-0.7,0.9-1.5,1.8-2.2,2.7h7.5c0.7-0.8,1.4-1.7,2.1-2.7
		H326.6z M324.9,244.3h5.1c0.7-1.1,1.1-2.1,1.3-3.1h-6.5V244.3z M341.7,241.2h-5.6c-0.2,1-0.4,2-0.8,3.1h6.4V241.2z"/>
	<path class="st0" d="M398.2,228.3v44.9h-6v-1.8h-31v1.8h-5.7v-44.9H398.2z M361.2,233.6v16.8c3.6-0.7,7.4-1.8,10.8-3.1
		c-1.3-1-2.5-1.9-3.6-2.9c-1,0.9-2,1.6-3,2.2c-0.9-0.9-2.8-2.7-3.9-3.5c4.1-2.3,8.1-5.8,10.6-9.5H361.2z M392.2,266.1v-15.2
		c-1,1.1-2.1,2.8-2.7,3.8c-4.3-0.9-8.6-2.4-12.5-4.4c-1.3,0.7-2.7,1.3-4,1.9c4,0.8,8.7,2.3,11.5,3.5l-2.4,3.7c-3-1.3-8.2-3.2-12.5-4
		l1.8-2.6c-2.7,1.1-5.5,1.9-8.2,2.6c-0.4-1.2-1.3-2.9-2.2-4.1v14.8h23.7c-5-1.8-13.1-3.6-19.7-4.3l2.7-3.9
		c6.8,0.7,15.2,2.5,20.3,4.2l-2.5,4H392.2z M372.2,241.8c1.3,1.2,2.8,2.3,4.7,3.2c1.9-0.9,3.5-2,5-3.2H372.2z M392.2,233.6h-19.5
		l4.2,1.5c-0.5,0.8-1,1.6-1.6,2.3h10.9l0.8-0.2l3.4,2c-2,3.1-5,5.8-8.4,8.2c3.2,1.2,6.7,2.1,10.1,2.8V233.6z"/>
	<path class="st0" d="M416.2,244.9c0,2.1,0,4.2-0.2,6.4h24.8v21.8h-6.5v-15.6h-19c-1.1,5.8-3.2,11.3-7.6,15.8
		c-0.9-1.5-3.2-3.8-4.7-4.9c6.2-6.7,6.9-15.9,6.9-24.3v-16.8h6.2v11.4h12.3v-12.4h6.5v12.4h11.8v6.2H416.2z"/>
</g>
</svg>
